# xmcd
#
# Track frame offsets:
#	187
#	16000
#	30455
#	39925
#	51897
#	63882
#	75765
#	88687
#	100242
#	111377
#
# Disc length: 1652 seconds
#
# Revision: 2
# Processed by: cddbd v1.5.1PL2 Copyright (c) Steve Scherf et al.
# Submitted via: audiograbber 1.83.01
#
DISCID=6706720a
DTITLE=JVC - JVC057
DYEAR=1992
DGENRE=Karaoke Pop
TTITLE0=Cole, Nat King - Mona Lisa
TTITLE1=Cole, Nat King - L O V E
TTITLE2=Cole, Nat King - It's Only A Paper Moon
TTITLE3=Cole, Nat King - Blossom Fell, A
TTITLE4=Cole, Nat King - Non Dimenticar (Don't Forget)
TTITLE5=Cole, Nat King - Ballerina
TTITLE6=Boone, Pat - I Almost Lost My Mind
TTITLE7=Boone, Pat - Don't Forbid Me
TTITLE8=Boone, Pat - Love Letters In The Sand
TTITLE9=Boone, Pat - April Love
EXTD=
EXTT0=
EXTT1=
EXTT2=
EXTT3=
EXTT4=
EXTT5=
EXTT6=
EXTT7=
EXTT8=
EXTT9=
PLAYORDER=
